<svg width="12" height="11" viewBox="0 0 12 11" fill="none" xmlns="http://www.w3.org/2000/svg">
<path d="M10.6428 0.554381C10.1481 0.0597027 9.34614 0.0597201 8.85148 0.55438L5.62708 3.77879L2.40267 0.554379C1.90801 0.0597186 1.10601 0.0596969 0.611333 0.554378C0.116655 1.04906 0.116673 1.85106 0.611333 2.34571L3.83574 5.57012L0.611334 8.79453C0.116674 9.28919 0.116657 10.0912 0.611335 10.5859C1.10601 11.0805 1.90801 11.0805 2.40267 10.5859L5.62708 7.36146L8.85149 10.5859C9.34615 11.0805 10.1481 11.0805 10.6428 10.5859C11.1375 10.0912 11.1375 9.28919 10.6428 8.79453L7.41841 5.57012L10.6428 2.34572C11.1375 1.85106 11.1375 1.04906 10.6428 0.554381Z" fill="black"/>
</svg>
